<?xml version="1.0" standalone="no"?>
<!DOCTYPE svg PUBLIC "-//W3C//DTD SVG 20010904//EN"
 "http://www.w3.org/TR/2001/REC-SVG-20010904/DTD/svg10.dtd">
<svg version="1.0" xmlns="http://www.w3.org/2000/svg"
 width="242.000000pt" height="100.000000pt" viewBox="0 0 242.000000 100.000000"
 preserveAspectRatio="xMidYMid meet">

<g transform="translate(0.000000,100.000000) scale(0.100000,-0.100000)"
fill="#000000" stroke="none">
<path d="M1351 946 c-9 -11 -8 -17 7 -28 10 -7 30 -35 45 -62 l27 -48 -30 -35
-30 -34 0 -259 0 -260 140 0 140 0 0 251 c0 257 -2 271 -42 315 -19 22 -19 22
1 63 12 22 31 49 42 60 13 12 19 26 15 36 -8 22 -31 14 -32 -11 0 -10 -13 -43
-27 -71 l-27 -53 -70 0 -69 0 -27 46 c-15 26 -29 56 -30 68 -1 12 -3 24 -3 29
-2 12 -18 8 -30 -7z m23 -17 c-3 -5 -10 -7 -15 -3 -5 3 -7 10 -3 15 3 5 10 7
15 3 5 -3 7 -10 3 -15z m286 5 c0 -8 -5 -12 -10 -9 -6 4 -8 11 -5 16 9 14 15
11 15 -7z m-88 -201 c25 -23 27 -156 2 -146 -24 9 -44 -23 -44 -68 0 -40 24
-74 46 -65 11 4 14 -16 14 -104 l0 -110 -80 0 -80 0 0 111 c0 75 3 108 11 104
5 -4 19 1 30 11 36 32 16 124 -28 124 -20 0 -18 118 4 142 21 24 99 25 125 1z
m-100 -188 c13 -30 -3 -75 -27 -75 -18 0 -29 41 -21 75 4 14 13 25 21 25 9 0
21 -11 27 -25z m120 0 c13 -30 -3 -75 -27 -75 -18 0 -29 41 -21 75 4 14 13 25
21 25 9 0 21 -11 27 -25z"/>
<path d="M1475 350 l29 -30 28 27 c15 14 26 29 23 31 -3 3 -16 -4 -28 -16
l-24 -22 -18 20 c-10 11 -23 20 -28 20 -6 0 2 -14 18 -30z"/>
<path d="M70 520 l0 -290 120 0 c125 0 125 0 132 45 3 19 -3 20 -94 23 l-98 3
0 94 0 95 84 0 c78 0 84 1 90 23 3 12 6 25 6 30 0 4 -40 7 -90 7 l-90 0 0 95
0 95 85 0 c83 0 86 1 95 26 6 14 10 30 10 35 0 5 -54 9 -125 9 l-125 0 0 -290z"/>
<path d="M410 555 l0 -257 34 -34 c31 -31 39 -34 95 -34 36 0 74 6 91 15 56
29 60 49 60 320 l0 245 -30 0 -30 0 0 -238 c0 -279 -1 -282 -79 -282 -80 0
-80 -1 -83 276 l-3 239 -27 3 -28 3 0 -256z"/>
<path d="M1002 523 l3 -288 27 -3 27 -3 3 123 3 123 57 3 c51 3 61 0 83 -22
23 -23 25 -32 25 -126 l0 -101 28 3 27 3 0 111 c0 96 -3 115 -19 133 -19 21
-19 22 3 62 20 34 23 52 19 114 -6 124 -44 153 -201 154 l-87 1 2 -287z m209
200 c9 -10 14 -41 14 -85 0 -87 -12 -98 -102 -98 l-63 0 0 100 0 100 69 0 c52
0 72 -4 82 -17z"/>
<path d="M1730 775 l0 -35 55 0 55 0 2 -252 3 -253 28 -3 27 -3 0 255 0 255
53 3 c51 3 52 4 55 36 l3 32 -140 0 -141 0 0 -35z"/>
<path d="M2095 797 c-3 -7 -4 -136 -3 -287 l3 -275 119 -3 c127 -3 136 0 136
46 0 21 -3 22 -95 22 l-95 0 0 95 0 95 85 0 c67 0 85 3 85 14 0 8 3 21 6 30 5
14 -6 16 -85 16 l-91 0 0 95 0 94 88 3 87 3 3 33 3 32 -121 0 c-88 0 -122 -3
-125 -13z"/>
<path d="M770 460 l0 -30 75 0 75 0 0 30 0 30 -75 0 -75 0 0 -30z"/>
<path d="M1395 190 c4 -6 53 -10 116 -10 66 0 109 4 109 10 0 6 -45 10 -116
10 -74 0 -113 -4 -109 -10z"/>
<path d="M1468 153 c23 -2 61 -2 85 0 23 2 4 4 -43 4 -47 0 -66 -2 -42 -4z"/>
<path d="M70 100 l0 -30 1135 0 c973 0 1135 2 1135 14 0 8 3 21 6 30 6 15 -99
16 -1135 16 l-1141 0 0 -30z"/>
</g>
</svg>
