<?xml version="1.0" standalone="no"?>
<!DOCTYPE svg PUBLIC "-//W3C//DTD SVG 20010904//EN"
 "http://www.w3.org/TR/2001/REC-SVG-20010904/DTD/svg10.dtd">
<svg version="1.0" xmlns="http://www.w3.org/2000/svg"
 width="121.000000pt" height="50.000000pt" viewBox="0 0 121.000000 50.000000"
 preserveAspectRatio="xMidYMid meet">

<g transform="translate(0.000000,50.000000) scale(0.100000,-0.100000)"
fill="#000000" stroke="none">
<path d="M696 379 c-12 -21 -16 -55 -16 -148 l0 -122 73 3 72 3 3 123 c3 119
2 123 -23 147 -34 35 -87 32 -109 -6z m87 -13 c10 -10 14 -45 15 -130 l1 -116
-44 0 -45 0 2 116 c1 85 5 119 15 130 18 18 38 18 56 0z"/>
<path d="M730 188 c0 -3 6 -11 14 -17 10 -9 17 -7 27 6 12 16 12 17 -2 6 -12
-10 -18 -10 -27 -1 -7 7 -12 9 -12 6z"/>
<path d="M30 260 l0 -140 65 0 c51 0 65 3 65 15 0 11 -12 15 -50 15 l-50 0 0
45 0 45 45 0 c38 0 45 3 45 20 0 17 -7 20 -45 20 l-45 0 0 44 0 45 47 3 c26 2
48 9 51 16 3 9 -14 12 -62 12 l-66 0 0 -140z"/>
<path d="M200 280 c0 -115 1 -122 25 -145 29 -30 64 -32 96 -6 23 18 24 27 27
145 4 122 3 126 -17 126 -20 0 -21 -5 -21 -124 0 -104 -3 -125 -16 -130 -24
-9 -31 -8 -48 10 -13 12 -16 39 -16 130 0 95 -3 114 -15 114 -13 0 -15 -20
-15 -120z"/>
<path d="M500 260 c0 -118 2 -140 15 -140 12 0 15 13 15 61 l0 60 38 -3 37 -3
3 -57 c2 -43 7 -58 17 -58 12 0 15 14 15 58 0 32 -5 63 -11 69 -8 8 -8 13 0
17 6 4 11 29 11 56 0 65 -16 80 -86 80 l-54 0 0 -140z m105 60 c0 -45 0 -45
-37 -48 l-38 -3 0 51 0 51 38 -3 c37 -3 37 -3 37 -48z"/>
<path d="M862 388 c3 -7 17 -14 31 -16 l27 -3 0 -125 c0 -104 2 -124 15 -124
13 0 15 21 15 125 l0 125 24 0 c13 0 26 7 30 15 4 13 -7 15 -70 15 -56 0 -75
-3 -72 -12z"/>
<path d="M1050 260 l0 -140 59 0 c43 0 60 4 65 15 4 12 -4 15 -44 15 l-50 0 0
44 0 45 43 3 c29 2 42 8 42 18 0 10 -13 16 -42 18 l-43 3 0 45 0 44 45 0 c33
0 45 4 45 15 0 12 -13 15 -60 15 l-60 0 0 -140z"/>
<path d="M382 228 c3 -7 21 -14 41 -16 28 -2 37 1 37 12 0 12 -11 16 -41 16
-28 0 -39 -4 -37 -12z"/>
<path d="M728 93 c18 -2 45 -2 60 0 15 2 0 4 -33 4 -33 0 -45 -2 -27 -4z"/>
<path d="M738 73 c12 -2 30 -2 40 0 9 3 -1 5 -23 4 -22 0 -30 -2 -17 -4z"/>
<path d="M30 45 c0 -13 70 -15 570 -15 500 0 570 2 570 15 0 13 -70 15 -570
15 -500 0 -570 -2 -570 -15z"/>
</g>
</svg>
