<?xml version="1.0" standalone="no"?>
<!DOCTYPE svg PUBLIC "-//W3C//DTD SVG 20010904//EN"
 "http://www.w3.org/TR/2001/REC-SVG-20010904/DTD/svg10.dtd">
<svg version="1.0" xmlns="http://www.w3.org/2000/svg"
 width="2063.000000pt" height="853.000000pt" viewBox="0 0 2063.000000 853.000000"
 preserveAspectRatio="xMidYMid meet">

<g transform="translate(0.000000,853.000000) scale(0.100000,-0.100000)"
fill="#000000" stroke="none">
<path d="M11565 8143 c-46 -24 -66 -45 -86 -88 -47 -103 11 -225 122 -255 23
-6 53 -9 67 -6 26 6 33 -5 285 -472 141 -263 257 -481 257 -484 0 -3 -21 -19
-47 -34 -285 -165 -478 -468 -513 -805 -6 -66 -10 -790 -10 -2105 l0 -2004
1209 0 1208 0 12 73 c9 55 11 557 9 2097 l-4 2025 -21 75 c-63 214 -153 363
-308 508 -42 39 -110 92 -151 118 -41 25 -74 48 -74 51 0 3 116 221 258 484
252 470 258 479 284 474 44 -10 109 14 149 54 123 123 28 323 -146 309 -148
-12 -213 -177 -121 -303 14 -19 -4 -55 -244 -500 -148 -275 -265 -479 -272
-479 -7 1 -53 14 -103 28 -133 39 -256 49 -535 43 -251 -6 -311 -14 -434 -57
-33 -11 -63 -17 -66 -13 -7 7 -466 855 -504 930 -15 31 -15 33 9 69 62 91 35
207 -60 261 -48 27 -125 30 -170 6z m125 -78 c37 -19 50 -43 50 -93 0 -80 -95
-120 -158 -67 -53 44 -47 120 12 156 38 23 58 24 96 4z m2440 0 c89 -46 54
-185 -47 -185 -90 1 -135 108 -70 167 39 36 73 41 117 18z m-990 -1655 c172
-33 325 -167 389 -343 l26 -72 3 -517 c2 -285 2 -518 0 -518 -2 0 -30 14 -62
30 -168 85 -345 -16 -432 -247 -133 -350 -3 -806 250 -874 58 -16 139 -5 193
25 25 14 47 26 49 26 2 0 4 -427 4 -950 l0 -950 -695 0 -695 0 0 955 0 954 36
-24 c106 -72 227 -57 333 41 68 63 110 136 147 259 23 79 27 108 27 230 1 158
-13 232 -68 352 -38 82 -118 174 -180 205 -22 12 -67 23 -101 26 -61 4 -77 0
-186 -56 -12 -6 -10 977 2 1039 36 188 191 352 382 403 64 18 495 22 578 6z
m-732 -1534 c109 -57 176 -223 176 -436 0 -175 -36 -294 -115 -385 -126 -143
-289 -36 -344 226 -70 332 101 690 283 595z m1030 0 c172 -91 237 -477 122
-725 -67 -142 -161 -194 -252 -138 -166 100 -222 482 -107 725 31 64 85 127
123 142 33 13 84 12 114 -4z"/>
<path d="M12400 3245 l-45 -45 238 -238 237 -237 230 230 230 230 -36 54 -36
54 -194 -194 -194 -194 -193 193 -193 192 -44 -45z"/>
<path d="M562 4443 l3 -2438 1054 -3 c580 -1 1059 2 1063 6 7 7 108 489 108
514 0 4 -382 8 -850 8 l-850 0 0 820 0 820 724 0 c448 0 727 4 731 10 5 8 105
494 105 512 0 4 -351 8 -780 8 l-780 0 0 825 0 825 764 0 763 0 52 258 c28
141 51 260 51 265 0 4 -486 7 -1080 7 l-1080 0 2 -2437z"/>
<path d="M3454 6867 c-2 -7 -3 -915 -1 -2017 3 -2234 -3 -2044 71 -2242 54
-144 117 -239 241 -363 157 -157 314 -244 525 -290 98 -21 494 -32 640 -17
190 20 350 75 493 168 86 57 239 207 289 285 82 125 146 285 168 421 6 41 10
752 10 2066 l0 2002 -260 0 -260 0 -2 -2002 -3 -2003 -23 -59 c-67 -177 -202
-300 -373 -341 -91 -21 -497 -21 -588 0 -188 45 -341 198 -386 387 -13 54 -15
332 -15 2041 l0 1977 -260 0 c-204 0 -262 -3 -266 -13z"/>
<path d="M8545 6868 c-3 -7 -4 -1104 -3 -2438 l3 -2425 260 0 260 0 3 1033 2
1032 465 0 c306 0 482 -4 517 -11 170 -36 312 -166 377 -343 l26 -71 3 -822 3
-823 260 0 260 0 -3 853 c-3 850 -3 852 -26 932 -50 177 -166 364 -305 489
l-71 65 29 22 c53 39 163 157 205 218 79 117 137 256 159 385 7 36 11 242 11
517 0 366 -3 473 -15 536 -43 227 -149 420 -315 577 -132 124 -273 201 -469
254 l-96 26 -768 4 c-623 2 -768 1 -772 -10z m1520 -533 c146 -38 266 -138
334 -276 59 -121 63 -164 59 -631 -4 -355 -6 -410 -22 -458 -49 -149 -140
-256 -274 -323 l-85 -42 -504 -3 -503 -3 0 876 0 875 468 0 c388 0 478 -3 527
-15z"/>
<path d="M14750 6615 l0 -265 465 0 465 0 2 -2172 3 -2173 263 -3 262 -2 0
2175 0 2175 435 0 c239 0 435 1 435 3 0 2 23 115 50 252 28 137 50 255 50 262
0 11 -222 13 -1215 13 l-1215 0 0 -265z"/>
<path d="M17850 4440 l0 -2440 1060 0 1060 0 5 23 c3 12 27 131 54 264 l48
243 -853 0 -854 0 0 820 0 820 730 0 730 0 5 23 c3 12 27 131 54 265 l48 242
-783 0 -784 0 0 825 0 825 765 0 765 0 5 23 c16 68 95 474 95 489 0 17 -44 18
-1075 18 l-1075 0 0 -2440z"/>
<path d="M6560 3915 l0 -265 660 0 660 0 0 265 0 265 -660 0 -660 0 0 -265z"/>
<path d="M11880 1640 l0 -70 965 0 965 0 9 23 c5 13 12 45 16 70 l7 47 -981 0
-981 0 0 -70z"/>
<path d="M12167 1393 c-4 -3 -7 -35 -7 -70 l0 -63 685 0 684 0 10 38 c5 20 12
52 16 70 l7 32 -695 0 c-381 0 -697 -3 -700 -7z"/>
<path d="M560 820 l0 -260 9680 0 9680 0 5 23 c13 55 95 472 95 484 0 11
-1704 13 -9730 13 l-9730 0 0 -260z"/>
</g>
</svg>
