<?xml version="1.0" standalone="no"?>
<!DOCTYPE svg PUBLIC "-//W3C//DTD SVG 20010904//EN"
 "http://www.w3.org/TR/2001/REC-SVG-20010904/DTD/svg10.dtd">
<svg version="1.0" xmlns="http://www.w3.org/2000/svg"
 width="150.000000pt" height="150.000000pt" viewBox="0 0 150.000000 150.000000"
 preserveAspectRatio="xMidYMid meet">

<g transform="translate(0.000000,150.000000) scale(0.100000,-0.100000)"
fill="#000000" stroke="none">
<path d="M729 1203 c-13 -16 -12 -17 4 -4 16 13 21 21 13 21 -2 0 -10 -8 -17
-17z"/>
<path d="M570 1185 c0 -8 9 -24 21 -36 16 -16 18 -23 8 -35 -10 -12 -9 -13 5
-8 9 3 16 1 16 -5 0 -6 5 -11 11 -11 5 0 7 5 3 12 -5 8 -1 9 12 5 18 -7 18 -6
-1 8 -39 28 -46 37 -42 49 3 7 -4 18 -14 24 -16 10 -19 9 -19 -3z"/>
<path d="M760 1183 c12 -25 26 -30 34 -10 3 8 9 6 20 -7 9 -11 16 -15 16 -9 0
20 -30 37 -42 25 -8 -8 -15 -7 -25 6 -13 15 -13 15 -3 -5z"/>
<path d="M908 1189 c-9 -5 -15 -16 -12 -23 3 -8 -3 -23 -13 -33 -25 -25 -19
-47 7 -31 10 6 16 17 13 23 -2 7 3 20 12 29 22 21 16 48 -7 35z"/>
<path d="M660 1169 c-7 -11 -10 -23 -7 -25 2 -2 9 7 15 21 14 30 7 33 -8 4z"/>
<path d="M700 1170 c-9 -6 -10 -10 -3 -10 6 0 15 5 18 10 8 12 4 12 -15 0z"/>
<path d="M560 1058 c0 -19 2 -20 10 -8 13 19 13 30 0 30 -5 0 -10 -10 -10 -22z"/>
<path d="M910 1076 c0 -2 7 -9 15 -16 13 -11 14 -10 9 4 -5 14 -24 23 -24 12z"/>
<path d="M790 1050 c-30 -30 -27 -83 7 -110 72 -56 165 42 103 108 -27 29 -83
29 -110 2z"/>
<path d="M644 1023 c0 -10 -5 -17 -11 -15 -19 3 -16 -43 3 -59 32 -26 63 15
50 67 -7 28 -45 34 -42 7z"/>
<path d="M740 956 c0 -9 5 -16 10 -16 6 0 10 4 10 9 0 6 -4 13 -10 16 -5 3
-10 -1 -10 -9z"/>
<path d="M720 918 c0 -5 14 -8 30 -8 17 0 30 3 30 8 0 4 -13 7 -30 7 -16 0
-30 -3 -30 -7z"/>
<path d="M700 890 c0 -5 23 -10 50 -10 28 0 50 5 50 10 0 6 -22 10 -50 10 -27
0 -50 -4 -50 -10z"/>
<path d="M700 860 c0 -8 14 -10 43 -6 l42 6 -40 -14 -40 -14 48 -1 c41 -1 48
2 45 17 -2 13 -15 18 -51 20 -30 2 -47 -1 -47 -8z"/>
<path d="M514 808 c-25 -30 -31 -33 -75 -30 l-49 4 -2 -59 -1 -58 -6 55 -6 55
-49 3 -49 3 5 -76 c3 -47 1 -78 -5 -82 -6 -4 -13 -1 -15 5 -2 7 -18 13 -35 13
-31 2 -31 2 -4 6 41 6 35 55 -8 66 -12 3 -4 5 18 6 36 1 38 3 35 29 -3 27 -4
27 -86 30 l-83 3 3 -98 3 -98 83 -3 c69 -2 82 0 82 13 0 25 29 29 53 7 32 -28
62 -35 102 -22 45 15 55 35 55 106 0 46 5 63 22 81 22 23 22 23 33 4 10 -19
12 -18 34 15 25 37 20 63 -6 29 -12 -16 -14 -16 -10 -3 11 31 -11 29 -39 -4z"/>
<path d="M950 824 c0 -15 -2 -16 -9 -5 -14 21 -33 4 -21 -19 10 -19 50 -24 50
-5 0 5 4 4 9 -4 5 -7 14 -12 20 -10 7 3 -1 17 -19 34 -26 25 -30 26 -30 9z"/>
<path d="M698 793 c34 -2 88 -2 120 0 31 2 3 3 -63 3 -66 0 -92 -1 -57 -3z"/>
<path d="M813 763 c15 -2 37 -2 50 0 12 2 0 4 -28 4 -27 0 -38 -2 -22 -4z"/>
<path d="M1022 739 c6 -16 13 -28 16 -25 3 3 11 1 19 -5 20 -17 16 -2 -9 31
-28 39 -40 38 -26 -1z"/>
<path d="M1240 736 c0 -29 -4 -36 -20 -36 -18 0 -20 -7 -20 -54 l0 -55 -37 -4
-38 -4 43 -1 c32 -2 42 2 42 13 0 11 7 14 28 10 l27 -6 -27 16 c-38 21 -39 65
-3 65 22 0 25 4 25 39 0 22 -4 43 -10 46 -6 4 -10 -8 -10 -29z"/>
<path d="M1420 745 c0 -10 -11 -15 -35 -15 -19 0 -35 -3 -35 -8 0 -4 20 -6 45
-4 36 3 45 8 45 23 0 10 -4 19 -10 19 -5 0 -10 -7 -10 -15z"/>
<path d="M797 710 c-5 -39 -3 -45 12 -35 6 3 11 17 11 30 0 18 6 24 28 27 24
3 23 4 -10 9 -35 5 -36 4 -41 -31z"/>
<path d="M588 733 c7 -3 16 -2 19 1 4 3 -2 6 -13 5 -11 0 -14 -3 -6 -6z"/>
<path d="M700 720 c0 -11 2 -20 4 -20 2 0 6 9 9 20 3 11 1 20 -4 20 -5 0 -9
-9 -9 -20z"/>
<path d="M937 679 c-3 -13 -1 -19 6 -16 15 5 22 37 9 37 -5 0 -12 -9 -15 -21z"/>
<path d="M1040 691 c0 -5 7 -25 15 -44 21 -51 20 -55 -22 -60 -35 -3 -35 -4 9
-5 l47 -2 -21 60 c-18 55 -28 73 -28 51z"/>
<path d="M1087 692 c-3 -4 3 -17 13 -30 l19 -23 -1 31 c-1 28 -20 41 -31 22z"/>
<path d="M500 665 c0 -27 30 -45 76 -45 20 0 24 5 24 29 0 32 -14 41 -66 41
-30 0 -34 -3 -34 -25z"/>
<path d="M1400 675 c0 -9 -9 -15 -25 -15 -17 0 -25 -5 -24 -17 0 -11 3 -13 6
-5 2 6 15 12 28 12 14 0 25 7 28 20 3 11 1 20 -4 20 -5 0 -9 -7 -9 -15z"/>
<path d="M830 669 c0 -5 5 -7 10 -4 6 3 10 8 10 11 0 2 -4 4 -10 4 -5 0 -10
-5 -10 -11z"/>
<path d="M700 626 c0 -33 -2 -35 -37 -39 l-38 -4 38 -1 c43 -2 81 23 57 38 -7
4 -10 15 -7 24 4 9 2 16 -3 16 -6 0 -10 -15 -10 -34z"/>
<path d="M817 618 c5 -27 3 -28 -33 -28 -62 0 -34 -7 54 -13 77 -6 84 -5 89
13 3 11 16 21 32 23 23 3 22 4 -7 6 -21 0 -35 -4 -38 -14 -4 -10 -19 -15 -43
-15 -31 0 -39 4 -48 28 l-12 27 6 -27z"/>
<path d="M1420 605 c0 -11 -17 -15 -72 -18 l-73 -3 83 -2 c76 -2 82 -1 82 18
0 11 -4 20 -10 20 -5 0 -10 -7 -10 -15z"/>
<path d="M660 550 c0 -5 5 -10 11 -10 5 0 7 5 4 10 -3 6 -8 10 -11 10 -2 0 -4
-4 -4 -10z"/>
<path d="M705 550 c-3 -5 1 -10 9 -10 9 0 16 5 16 10 0 6 -4 10 -9 10 -6 0
-13 -4 -16 -10z"/>
<path d="M760 550 c0 -5 5 -10 10 -10 6 0 10 5 10 10 0 6 -4 10 -10 10 -5 0
-10 -4 -10 -10z"/>
<path d="M825 550 c-3 -5 1 -10 10 -10 9 0 13 5 10 10 -3 6 -8 10 -10 10 -2 0
-7 -4 -10 -10z"/>
<path d="M650 480 c-10 -7 23 -10 103 -10 71 0 117 4 117 10 0 13 -200 13
-220 0z"/>
<path d="M620 450 c0 -6 28 -10 63 -10 l62 0 -35 -21 c-19 -11 -43 -31 -53
-42 -13 -15 -20 -18 -24 -9 -6 14 -33 16 -33 2 0 -5 8 -25 17 -45 19 -39 44
-47 40 -13 -2 21 6 23 133 44 168 28 190 29 190 8 0 -9 5 -14 11 -12 6 2 10 7
10 11 -1 4 -1 23 -1 42 0 24 -5 35 -15 35 -8 0 -15 -7 -15 -15 0 -13 -5 -12
-37 3 -21 9 -39 20 -41 25 -6 11 -272 9 -272 -3z"/>
</g>
</svg>
